<svg width="19" height="18" viewBox="0 0 19 18" fill="none" xmlns="http://www.w3.org/2000/svg">
<path d="M1.7673 6.52335L1.76768 6.5233L4.57754 6.0953C6.05835 5.86974 7.32986 4.92214 7.96929 3.56759L9.25697 0.839776C9.47083 0.387213 10.0685 0.38616 10.2842 0.84013C10.2843 0.840252 10.2843 0.840374 10.2844 0.840496L11.5717 3.56759C12.2112 4.92214 13.4827 5.86974 14.9635 6.0953L17.7733 6.5233L17.7737 6.52335C18.222 6.59128 18.462 7.21682 18.0876 7.59778L18.0874 7.59792L15.954 9.77003C14.948 10.7942 14.491 12.237 14.724 13.6536L15.2356 16.7643C15.3268 17.3215 14.7852 17.6368 14.4086 17.4299L14.4086 17.4299L11.9366 16.0724C10.5876 15.3315 8.95344 15.3315 7.60437 16.0724L5.13245 17.4299L5.13086 17.4308C4.75781 17.6374 4.21365 17.3248 4.30544 16.7643L4.81702 13.6536C5.04999 12.237 4.59306 10.7942 3.58707 9.77003L1.45359 7.59792L1.45345 7.59778C1.07897 7.21682 1.31906 6.59128 1.7673 6.52335Z" stroke="#949DA6"/>
</svg>
